<?xml version="1.0" encoding="UTF-8"?>
<svg id="Layer_1" data-name="Layer 1" xmlns="http://www.w3.org/2000/svg" viewBox="0 0 841.89 595.28">
  <defs>
    <style>
      .cls-1 {
        fill: #aad037;
        stroke-width: 0px;
      }
    </style>
  </defs>
  <path class="cls-1" d="m314.82,481.2c-101.47,0-212.27-48.59-304.76-138.13h0c15.94-16.46,41.79-17.62,59.4-2.98,95.87,79.71,206.83,114.02,299.98,93.42-77.66-51.63-143.17-132.43-136.77-218.78,1.69-22.8,9.98-77.73,50.45-95.21,39.68-17.14,94.11,7.2,136.59,58.6,40.02-51.75,85.85-73.97,126-59.86,48.77,17.15,58.46,82.72,59.91,95.69,9.07,82.4-55.43,169.18-131.74,219.39,69.49,7.86,171.68-27.73,300.29-104.86,19.73-11.83,45.33-5.74,57.65,13.69h0c-186.46,118.27-325.13,158.55-412.25,119.72-32.84,12.97-68.2,19.29-104.76,19.29Zm-4.41-325.1c-4.13,0-7.72.66-10.64,1.92-15.88,6.86-23.53,36.51-25.26,59.81-5.83,78.6,70.14,156.13,146.28,197.73,77.37-37.79,151.31-122.94,143.16-196.98-1.59-14.29-10.48-53.13-32.13-60.75-25.59-9.01-62.41,17.54-93.92,67.49l-17.48,27.71-17.84-27.48c-32.61-50.24-70.07-69.45-92.17-69.45Z"/>
  <path class="cls-1" d="m208.99,261.69c-.31,69.31,74.38,129.23,128.54,162.37-38.94-4.45-78.05-13.03-113.56-29.53-28.49-12.97-55.53-30.75-75.33-55.32-13.1-16.23-22.39-35.53-26.03-56.07,6.07,19.7,16.59,37.59,30.35,52.36,41.18,43.63,104.39,65.01,162.31,74.82,0,0-3.48,9.68-3.48,9.68-13.92-9.21-26.6-19.42-38.82-30.64-34.9-32.53-69.94-77.23-63.98-127.68h0Z"/>
  <path class="cls-1" d="m629.46,261.69c5.95,50.47-29.07,95.14-63.98,127.68-12.22,11.22-24.9,21.42-38.82,30.64,0,0-3.48-9.68-3.48-9.68,57.91-9.81,121.12-31.19,162.31-74.82,13.76-14.76,24.28-32.65,30.35-52.36-3.64,20.54-12.92,39.83-26.03,56.07-19.8,24.56-46.84,42.35-75.33,55.32-35.49,16.49-74.65,25.09-113.56,29.53,54.11-33.11,128.86-93.04,128.54-162.37h0Z"/>
</svg>